# This file uses centimeters as units for non-parametric coordinates.

mtllib mushroom.mtl
g default
v -0.280940 0.416062 0.280940
v 0.280940 0.416062 0.280940
v -0.212519 0.598142 0.212519
v 0.212519 0.598142 0.212519
v -0.212519 0.598142 -0.212519
v 0.212519 0.598142 -0.212519
v -0.280940 0.389161 -0.280940
v 0.280940 0.389161 -0.280940
v -0.271088 0.598142 0.001207
v 0.271088 0.598142 0.001207
v 0.358365 0.391079 0.001595
v -0.358365 0.391079 0.001595
v -0.015929 0.416062 0.358365
v -0.015929 0.389161 -0.358365
v -0.012050 0.598142 -0.271088
v -0.015929 0.642916 0.001595
v -0.012050 0.598142 0.271088
v -0.013110 0.383816 -0.294944
v 0.231221 0.383817 -0.231221
v 0.294944 0.385735 0.001313
v -0.013110 0.410718 0.294944
v 0.231221 0.410718 0.231221
v -0.294944 0.385735 0.001313
v -0.231221 0.410718 0.231221
v -0.231221 0.383817 -0.231221
v -0.009268 0.491200 0.000928
v -0.009268 0.489281 -0.208513
v 0.163463 0.503762 -0.163463
v 0.208513 0.491200 0.000928
v -0.009268 0.491200 0.208513
v 0.163463 0.505680 0.163463
v -0.208513 0.491200 0.000928
v -0.163463 0.505680 0.163463
v -0.163463 0.503762 -0.163463
v -0.098376 -0.214008 0.067369
v 0.098376 -0.214008 0.067369
v -0.070307 0.504294 0.056219
v 0.070307 0.504294 0.056195
v -0.070307 0.504294 -0.055172
v 0.070307 0.504294 -0.055172
v -0.098376 -0.214008 -0.088460
v 0.098376 -0.214008 -0.088460
v -0.006387 -0.214008 0.108277
v -0.006387 -0.214008 -0.130800
v -0.004564 0.504295 -0.085431
v -0.004564 0.504295 0.085431
v -0.086152 0.504295 -0.002775
v -0.004668 0.507602 -0.003867
v 0.086152 0.504295 -0.002775
v 0.120546 -0.214008 -0.015144
v -0.006531 -0.225571 -0.016672
v -0.120546 -0.214008 -0.015144
v -0.068104 0.139170 0.086661
v -0.002361 0.139170 0.116888
v 0.072511 0.139170 0.086637
v 0.088355 0.139170 0.028681
v 0.072511 0.139170 -0.024730
v -0.002361 0.139170 -0.053975
v -0.068104 0.139170 -0.024730
v -0.083948 0.139170 0.028681
vt 0.300777 0.115919
vt 0.299172 0.045594
vt 0.536808 0.113082
vt 0.480539 0.166971
vt 0.291353 0.552376
vt 0.292970 0.332796
vt 0.524015 0.338098
vt 0.473151 0.509131
vt 0.286713 0.622567
vt 0.527041 0.565399
vt 0.280724 0.815253
vt 0.294749 0.718838
vt 0.369728 0.753800
vt 0.381739 0.830449
vt 0.594280 0.339302
vt 0.074723 0.555632
vt 0.017307 0.326844
vt 0.087558 0.328673
vt 0.130992 0.501743
vt 0.266148 0.913142
vt 0.347366 0.900002
vt 0.084490 0.103315
vt 0.138380 0.159583
vt 0.188330 0.801848
vt 0.200427 0.877921
vt 0.222820 0.730912
vt 0.423527 0.707492
vt 0.300094 0.654123
vt 0.446673 0.836974
vt 0.388190 0.948815
vt 0.256970 0.968839
vt 0.150912 0.916762
vt 0.124444 0.793003
vt 0.177367 0.676833
vt 0.826923 0.344172
vt 0.745655 0.639624
vt 0.689334 0.645874
vt 0.683587 0.392642
vt 0.928609 0.381222
vt 0.843713 0.262019
vt 0.640558 0.391565
vt 0.784344 0.200781
vt 0.611196 0.651717
vt 0.934141 0.641006
vt 0.665249 0.918889
vt 0.826466 0.938240
vt 0.907395 0.894146
vt 0.959578 0.927009
vt 0.649168 0.649937
vt 0.881057 0.638286
vt 0.840716 0.636508
vt 0.837872 0.384745
vt 0.877209 0.382130
vt 0.871566 0.862692
vt 0.837727 0.864817
vt 0.797658 0.635224
vt 0.793899 0.388227
vt 0.761360 0.863808
vt 0.706946 0.883459
vt 0.803317 0.860828
vt 0.992009 0.643883
vt 0.611744 0.924082
vt 0.939170 0.979758
vt 0.759956 0.246026
vt 0.985108 0.383656
vt 0.602229 0.390622
vt 0.918491 0.278298
vt 0.913722 0.227115
vt 0.741645 0.391049
vt 0.763502 0.303253
vt 0.858899 0.186950
vt 0.892867 0.329598
vt 0.115611 0.516473
vt 0.068356 0.328173
vt 0.290085 0.571562
vt 0.123650 0.144203
vt 0.300338 0.096697
vt 0.495920 0.152241
vt 0.543221 0.338427
vt 0.487881 0.524511
vn 0.002354 0.798777 0.601623
vn -0.002450 0.150243 0.988646
vn 0.699244 0.208557 0.683785
vn 0.453642 0.768452 0.451320
vn 0.002268 0.764448 -0.644681
vn -0.000847 1.000000 0.000085
vn 0.619820 0.784662 -0.011354
vn 0.464503 0.740624 -0.485503
vn -0.002173 0.134031 -0.990975
vn 0.680034 0.186168 -0.709151
vn 0.000000 -0.999986 0.005235
vn -0.000747 -0.887564 0.460685
vn -0.310038 -0.891833 0.329408
vn -0.428401 -0.903333 0.021499
vn 0.991361 0.130517 -0.012974
vn -0.709673 0.183673 -0.680168
vn -0.991361 0.130517 -0.012974
vn -0.650259 0.759620 -0.011907
vn -0.496249 0.727977 -0.473061
vn -0.000701 -0.928592 -0.371102
vn -0.282942 -0.923982 -0.257295
vn -0.726737 0.205849 0.655347
vn -0.484995 0.755843 0.439864
vn 0.449576 -0.892964 0.022280
vn 0.301553 -0.920600 -0.248115
vn 0.330316 -0.888448 0.318673
vn -0.256860 -0.927441 0.271800
vn 0.001873 -0.880442 0.474151
vn -0.457180 -0.888129 0.047042
vn -0.245407 -0.953659 -0.174097
vn 0.001768 -0.926901 -0.375302
vn 0.257085 -0.951803 -0.167266
vn 0.457180 -0.888129 0.047042
vn 0.269502 -0.926194 0.263693
vn -0.001629 0.239305 0.970943
vn 0.002653 0.026584 0.999643
vn 0.681653 0.034666 0.730854
vn 0.688190 0.236832 0.685788
vn -0.000915 0.065902 -0.997826
vn -0.000018 1.000000 -0.000212
vn 0.973164 0.229663 -0.014398
vn 0.656304 0.113143 -0.745965
vn 0.685748 0.073044 -0.724164
vn 0.001249 0.078697 -0.996898
vn 0.957937 -0.286304 -0.019678
vn -0.000029 -1.000000 -0.000513
vn -0.001210 -0.047226 -0.998883
vn 0.652696 -0.114052 -0.748986
vn 0.998521 0.051254 0.018113
vn -0.721775 0.073242 -0.688242
vn -0.998460 0.052471 0.018036
vn -0.980839 0.194278 -0.014514
vn -0.697284 0.101387 -0.709589
vn -0.693827 -0.097304 -0.713538
vn -0.971525 -0.236094 -0.019972
vn -0.718260 0.036837 0.694799
vn -0.728083 0.218100 0.649867
vn -0.002364 -0.284285 0.958737
vn 0.685703 -0.280822 0.671528
vn -0.726423 -0.255334 0.638055
s 1
g geo_mushroom
usemtl initialShadingGroup
f 17/1/1 13/2/2 2/3/3 4/4/4
f 15/5/5 16/6/6 10/7/7 6/8/8
f 14/9/9 15/5/5 6/8/8 8/10/10
f 26/11/11 27/12/12 28/13/13 29/14/14
f 10/7/7 11/15/15 8/10/10 6/8/8
f 7/16/16 12/17/17 9/18/18 5/19/19
f 16/6/6 17/1/1 4/4/4 10/7/7
f 2/3/3 11/15/15 10/7/7 4/4/4
f 30/20/20 26/11/11 29/14/14 31/21/21
f 9/18/18 12/17/17 1/22/22 3/23/23
f 32/24/24 26/11/11 30/20/20 33/25/25
f 34/26/26 27/12/12 26/11/11 32/24/24
f 5/19/19 15/5/5 14/9/9 7/16/16
f 9/18/18 16/6/6 15/5/5 5/19/19
f 3/23/23 17/1/1 16/6/6 9/18/18
f 1/22/22 13/2/2 17/1/1 3/23/23
f 14/9/9 8/10/10 19/80/27 18/75/28
f 8/10/10 11/15/15 20/79/29 19/80/27
f 11/15/15 2/3/3 22/78/30 20/79/29
f 2/3/3 13/2/2 21/77/31 22/78/30
f 13/2/2 1/22/22 24/76/32 21/77/31
f 1/22/22 12/17/17 23/74/33 24/76/32
f 7/16/16 14/9/9 18/75/28 25/73/34
f 12/17/17 7/16/16 25/73/34 23/74/33
f 18/28/28 19/27/27 28/13/13 27/12/12
f 19/27/27 20/29/29 29/14/14 28/13/13
f 20/29/29 22/30/30 31/21/21 29/14/14
f 22/30/30 21/31/31 30/20/20 31/21/21
f 21/31/31 24/32/32 33/25/25 30/20/20
f 24/32/32 23/33/33 32/24/24 33/25/25
f 25/34/34 18/28/28 27/12/12 34/26/26
f 23/33/33 25/34/34 34/26/26 32/24/24
s 5
f 46/69/35 54/36/36 55/37/37 38/38/38
f 45/71/39 48/40/40 49/64/41 40/42/42
f 57/61/43 58/44/44 45/39/39 40/65/42
f 50/63/45 51/46/46 44/47/47 42/48/48
f 49/41/41 56/49/49 57/43/43 40/66/42
f 59/50/50 60/51/51 47/52/52 39/53/53
f 41/54/54 44/47/47 51/46/46 52/55/55
f 39/53/53 45/39/39 58/44/44 59/50/50
f 47/67/52 48/40/40 45/71/39 39/68/53
f 53/56/56 54/36/36 46/69/35 37/57/57
f 37/72/57 46/35/35 48/40/40 47/67/52
f 49/64/41 48/40/40 46/35/35 38/70/38
f 55/37/37 56/49/49 49/41/41 38/38/38
f 43/58/58 51/46/46 50/45/45 36/59/59
f 52/55/55 51/46/46 43/58/58 35/60/60
f 47/52/52 60/51/51 53/56/56 37/57/57
f 54/36/36 53/56/56 35/60/60 43/58/58
f 55/37/37 54/36/36 43/58/58 36/59/59
f 56/49/49 55/37/37 36/59/59 50/45/45
f 57/43/43 56/49/49 50/45/45 42/62/48
f 58/44/44 57/61/43 42/48/48 44/47/47
f 59/50/50 58/44/44 44/47/47 41/54/54
f 60/51/51 59/50/50 41/54/54 52/55/55
f 35/60/60 53/56/56 60/51/51 52/55/55
