# This file uses centimeters as units for non-parametric coordinates.

mtllib shirA.mtl
g default
v -0.500000 0.058358 0.879686
v 0.500000 0.058358 0.879686
v -0.500000 0.082443 0.879686
v 0.500000 0.082443 0.879686
v -0.500000 0.082443 -0.508974
v 0.500000 0.082443 -0.528472
v -0.500000 0.058358 -0.508974
v 0.500000 0.058358 -0.528472
v -0.500000 0.082443 -0.069583
v 0.500000 0.082443 -0.069583
v 0.500000 0.058358 -0.069583
v -0.500000 0.058358 -0.069583
v 1.470646 0.082443 -0.063501
v 1.470646 0.058358 -0.063501
v 1.470646 0.058358 -0.298552
v 1.470646 0.082443 -0.298552
v -1.470646 0.058358 -0.298552
v -1.470646 0.058358 -0.063501
v -1.470646 0.082443 -0.063501
v -1.470646 0.082443 -0.298552
v -0.324700 0.058358 0.839584
v -0.313990 0.058358 0.022834
v -0.331257 0.058358 -0.528778
v -0.331257 0.082443 -0.528778
v -0.313990 0.082443 0.022834
v -0.324700 0.082443 0.839584
v 0.365177 0.058358 0.022834
v 0.375886 0.058358 0.839584
v 0.375886 0.082443 0.839584
v 0.365177 0.082443 0.022834
v 0.382444 0.082443 -0.528778
v 0.382444 0.058358 -0.528778
v 0.129195 0.058358 0.820086
v 0.161426 0.058358 0.022834
v 0.129195 0.058358 -0.453955
v 0.129195 0.082443 -0.453955
v 0.161426 0.082443 0.022834
v 0.129195 0.082443 0.820086
v -0.101031 0.058358 0.820086
v -0.140425 0.058358 0.022834
v -0.101031 0.058358 -0.453955
v -0.101031 0.082443 -0.453955
v -0.140425 0.082443 0.022834
v -0.101031 0.082443 0.820086
vt 0.351914 0.719410
vt 0.351914 0.719410
vt 0.292376 0.728964
vt 0.292376 0.728964
vt 0.354775 0.077766
vt 0.345931 0.317856
vt 0.296793 0.317637
vt 0.293868 0.039810
vt 0.944251 0.586518
vt 0.962846 0.663250
vt 0.801397 0.589085
vt 0.798381 0.649928
vt 0.030384 0.272967
vt 0.807797 0.981316
vt 0.030912 0.154589
vt 0.030912 0.154589
vt 0.740256 0.157752
vt 0.739728 0.276130
vt 0.739728 0.276130
vt 0.740256 0.157752
vt 0.262354 0.749027
vt 0.823982 0.691556
vt 0.264486 0.270948
vt 0.262354 0.749027
vt 0.505653 0.272024
vt 0.838786 0.392940
vt 0.503522 0.750103
vt 0.503522 0.750103
vt 0.961014 0.698349
vt 0.265516 0.039838
vt 0.969995 0.399445
vt 0.506640 0.050733
vt 0.808435 0.447118
vt 0.461335 0.729718
vt 0.465989 0.040578
vt 0.465989 0.040578
vt 0.460586 0.318367
vt 0.461335 0.729718
vt 0.407437 0.719657
vt 0.805866 0.498947
vt 0.410298 0.078013
vt 0.410298 0.078013
vt 0.418728 0.318181
vt 0.407437 0.719657
vt 0.947659 0.517769
vt 0.354775 0.077766
vt 0.567211 0.498908
vt 0.563802 0.567658
vt 0.293868 0.039810
vt 0.554328 0.641035
vt 0.265516 0.039838
vt 0.540516 0.677504
vt 0.973411 0.450127
vt 0.564699 0.431829
vt 0.921528 0.106480
vt 0.851338 0.103000
vt 0.505653 0.272024
vt 0.506640 0.050733
vt 0.877987 0.984796
vt 0.030384 0.272967
vt 0.264486 0.270948
vt 0.555319 0.378888
vn -0.040850 0.000000 0.999165
vn -0.040850 0.000000 0.999165
vn -0.158695 0.000000 0.987328
vn -0.158695 0.000000 0.987328
vn 0.000000 1.000000 0.000000
vn 0.000000 1.000000 -0.000000
vn 0.000000 1.000000 0.000000
vn 0.000000 1.000000 0.000000
vn -0.152941 0.000000 -0.988235
vn -0.152941 0.000000 -0.988235
vn -0.197021 0.000000 -0.980399
vn -0.197021 0.000000 -0.980399
vn 0.000000 -1.000000 -0.000000
vn 0.000000 -1.000000 -0.000000
vn 0.000000 -1.000000 0.000000
vn 0.000000 -1.000000 0.000000
vn 1.000000 0.000000 0.000000
vn 1.000000 0.000000 0.000000
vn 1.000000 0.000000 0.000000
vn 1.000000 0.000000 0.000000
vn -1.000000 0.000000 0.000000
vn -1.000000 0.000000 0.000000
vn -1.000000 0.000000 0.000000
vn -1.000000 0.000000 0.000000
vn 0.000000 1.000000 -0.000000
vn 0.000000 1.000000 0.000000
vn 1.000000 0.000000 0.000000
vn 1.000000 0.000000 0.000000
vn 1.000000 0.000000 0.000000
vn 1.000000 0.000000 0.000000
vn 0.000000 -1.000000 0.000000
vn 0.000000 -1.000000 0.000000
vn -1.000000 0.000000 0.000000
vn -1.000000 0.000000 0.000000
vn -1.000000 0.000000 0.000000
vn -1.000000 0.000000 0.000000
vn -0.006266 0.000005 0.999980
vn -0.006266 0.000005 0.999980
vn -0.006266 0.000005 0.999980
vn -0.006266 0.000005 0.999980
vn 0.000000 -1.000000 0.000000
vn 0.000000 -1.000000 0.000000
vn 0.000000 -1.000000 0.000000
vn 0.000000 -1.000000 0.000000
vn 0.206984 -0.000004 -0.978344
vn 0.206984 -0.000004 -0.978344
vn 0.230495 -0.000005 -0.973074
vn 0.230495 -0.000005 -0.973074
vn 0.000000 1.000000 0.000000
vn 0.000000 1.000000 0.000000
vn 0.000000 1.000000 0.000000
vn 0.000000 1.000000 0.000000
vn 0.000000 -1.000000 0.000000
vn 0.000000 -1.000000 0.000000
vn 0.000000 -1.000000 0.000000
vn 0.000000 -1.000000 0.000000
vn 0.006266 0.000000 0.999980
vn 0.006266 0.000000 0.999980
vn 0.006266 0.000000 0.999980
vn 0.006266 0.000000 0.999980
vn 0.000000 1.000000 0.000000
vn 0.000000 1.000000 0.000000
vn 0.000000 1.000000 0.000000
vn 0.000000 1.000000 0.000000
vn -0.198058 0.000000 -0.980190
vn -0.198058 0.000000 -0.980190
vn -0.211864 0.000000 -0.977299
vn -0.211864 0.000000 -0.977299
vn 0.000000 -1.000000 0.000000
vn 0.000000 -1.000000 0.000000
vn 0.000000 -1.000000 0.000000
vn 0.000000 -1.000000 0.000000
vn 0.136610 0.000000 -0.990625
vn 0.136610 0.000000 -0.990625
vn 0.000000 1.000000 0.000000
vn 0.000000 1.000000 0.000000
vn 0.000000 1.000000 0.000000
vn 0.000000 1.000000 -0.000000
vn 0.223001 0.000000 0.974818
vn 0.147746 0.000000 0.989025
vn 0.147746 0.000000 0.989025
vn 0.223001 0.000000 0.974818
vn 0.000000 -1.000000 0.000000
vn -0.307457 0.000000 0.951562
vn -0.307457 0.000000 0.951562
vn 0.000000 1.000000 0.000000
vn 0.000000 -1.000000 0.000000
vn 0.000000 -1.000000 -0.000000
vn 0.000000 -1.000000 -0.000000
vn 0.160396 0.000000 -0.987053
vn 0.160396 0.000000 -0.987053
vn 0.000000 1.000000 0.000000
vn 0.000000 1.000000 -0.000000
vn 0.000000 1.000000 -0.000000
vn 0.042918 0.000000 0.999079
vn 0.042918 0.000000 0.999079
s 1
g geo_shirt
usemtl initialShadingGroup
f 38/1/1 33/2/2 28/3/3 29/4/4
s 2
f 36/5/5 37/6/6 30/7/7 31/8/8
s 3
f 35/46/9 36/5/10 31/8/11 32/49/12
s 4
f 34/11/13 35/9/14 32/10/15 27/12/16
s off
f 13/13/17 14/60/18 15/15/19 16/16/20
f 17/17/21 18/18/22 19/19/23 20/20/24
s 2
f 37/6/6 38/1/25 29/4/26 30/7/7
s off
f 2/21/27 11/61/28 10/23/29 4/24/30
s 4
f 33/48/31 34/11/13 27/12/16 28/50/32
s off
f 9/25/33 12/57/34 1/27/35 3/28/36
f 10/23/37 11/61/38 14/60/39 13/13/40
s 4
f 11/22/41 8/29/42 15/59/43 14/14/44
s 3
f 8/51/45 6/30/46 16/16/47 15/15/48
s 2
f 6/30/49 10/23/50 13/13/51 16/16/52
s 4
f 7/31/53 12/26/54 18/56/55 17/55/56
s off
f 12/57/57 9/25/58 19/19/59 18/18/60
s 2
f 9/25/61 5/32/62 20/20/63 19/19/64
s 3
f 5/32/65 7/58/66 17/17/67 20/20/68
s 4
f 12/26/54 22/33/69 21/54/70 1/62/71
f 7/31/53 23/53/72 22/33/69 12/26/54
s 3
f 5/32/65 24/36/73 23/35/74 7/58/66
s 2
f 9/25/61 25/37/75 24/36/76 5/32/62
f 3/28/77 26/38/78 25/37/75 9/25/61
s 1
f 1/27/79 21/34/80 26/38/81 3/28/82
s 4
f 28/50/32 27/12/16 11/22/41 2/52/83
s 1
f 29/4/4 28/3/3 2/21/84 4/24/85
s 2
f 30/7/7 29/4/26 4/24/86 10/23/50
f 31/8/8 30/7/7 10/23/50 6/30/49
s 3
f 32/49/12 31/8/11 6/30/46 8/51/45
s 4
f 27/12/16 32/10/15 8/29/42 11/22/41
f 39/47/87 40/40/88 34/11/13 33/48/31
f 40/40/88 41/45/89 35/9/14 34/11/13
s 3
f 41/41/90 42/42/91 36/5/10 35/46/9
s 2
f 42/42/92 43/43/93 37/6/6 36/5/5
f 43/43/93 44/44/94 38/1/25 37/6/6
s 1
f 44/44/95 39/39/96 33/2/2 38/1/1
s 4
f 21/54/70 22/33/69 40/40/88 39/47/87
f 22/33/69 23/53/72 41/45/89 40/40/88
s 3
f 23/35/74 24/36/73 42/42/91 41/41/90
s 2
f 24/36/76 25/37/75 43/43/93 42/42/92
f 25/37/75 26/38/78 44/44/94 43/43/93
s 1
f 26/38/81 21/34/80 39/39/96 44/44/95
